<mxfile host="app.diagrams.net" modified="2023-07-04T10:51:49.287Z" agent="Mozilla/5.0 (Windows NT 10.0; Win64; x64) AppleWebKit/537.36 (KHTML, like Gecko) Chrome/114.0.0.0 Safari/537.36" etag="JNMv8u4MYmaHNO67pg2X" version="21.5.2" type="github">
  <diagram name="第 1 页" id="gMqMVPgWtOwkqLMqQDhV">
    <mxGraphModel dx="1434" dy="764" grid="1" gridSize="10" guides="1" tooltips="1" connect="1" arrows="1" fold="1" page="1" pageScale="1" pageWidth="827" pageHeight="1169" math="0" shadow="0">
      <root>
        <mxCell id="0" />
        <mxCell id="1" parent="0" />
        <mxCell id="wr6of2yjVsRFrPMzdIXp-1" value="" style="rounded=0;whiteSpace=wrap;html=1;fillColor=#ffe6cc;strokeColor=#d79b00;" vertex="1" parent="1">
          <mxGeometry x="100" y="350" width="370" height="330" as="geometry" />
        </mxCell>
        <mxCell id="wr6of2yjVsRFrPMzdIXp-2" value="&lt;font style=&quot;font-size: 18px;&quot;&gt;&lt;b&gt;Dubbo&lt;/b&gt;&lt;/font&gt;" style="text;html=1;strokeColor=none;fillColor=none;align=center;verticalAlign=middle;whiteSpace=wrap;rounded=0;" vertex="1" parent="1">
          <mxGeometry x="130" y="370" width="60" height="30" as="geometry" />
        </mxCell>
        <mxCell id="wr6of2yjVsRFrPMzdIXp-8" style="rounded=0;orthogonalLoop=1;jettySize=auto;html=1;exitX=0.5;exitY=1;exitDx=0;exitDy=0;" edge="1" parent="1" source="wr6of2yjVsRFrPMzdIXp-3" target="wr6of2yjVsRFrPMzdIXp-4">
          <mxGeometry relative="1" as="geometry" />
        </mxCell>
        <mxCell id="wr6of2yjVsRFrPMzdIXp-9" style="rounded=0;orthogonalLoop=1;jettySize=auto;html=1;exitX=0.5;exitY=1;exitDx=0;exitDy=0;" edge="1" parent="1" source="wr6of2yjVsRFrPMzdIXp-3" target="wr6of2yjVsRFrPMzdIXp-5">
          <mxGeometry relative="1" as="geometry" />
        </mxCell>
        <mxCell id="wr6of2yjVsRFrPMzdIXp-10" style="rounded=0;orthogonalLoop=1;jettySize=auto;html=1;exitX=0.5;exitY=1;exitDx=0;exitDy=0;entryX=0.5;entryY=0;entryDx=0;entryDy=0;" edge="1" parent="1" source="wr6of2yjVsRFrPMzdIXp-3" target="wr6of2yjVsRFrPMzdIXp-6">
          <mxGeometry relative="1" as="geometry" />
        </mxCell>
        <mxCell id="wr6of2yjVsRFrPMzdIXp-11" style="rounded=0;orthogonalLoop=1;jettySize=auto;html=1;exitX=0.5;exitY=1;exitDx=0;exitDy=0;entryX=0.5;entryY=0;entryDx=0;entryDy=0;" edge="1" parent="1" source="wr6of2yjVsRFrPMzdIXp-3" target="wr6of2yjVsRFrPMzdIXp-7">
          <mxGeometry relative="1" as="geometry" />
        </mxCell>
        <mxCell id="wr6of2yjVsRFrPMzdIXp-3" value="&lt;font style=&quot;font-size: 18px;&quot;&gt;&lt;b&gt;内置API&lt;/b&gt;&lt;/font&gt;" style="rounded=1;whiteSpace=wrap;html=1;fillColor=#dae8fc;strokeColor=#6c8ebf;" vertex="1" parent="1">
          <mxGeometry x="230" y="410" width="120" height="60" as="geometry" />
        </mxCell>
        <mxCell id="wr6of2yjVsRFrPMzdIXp-4" value="&lt;span style=&quot;font-size: 18px;&quot;&gt;&lt;b&gt;内置实现类1&lt;/b&gt;&lt;/span&gt;" style="rounded=1;whiteSpace=wrap;html=1;fillColor=#dae8fc;strokeColor=#6c8ebf;" vertex="1" parent="1">
          <mxGeometry x="140" y="560" width="120" height="60" as="geometry" />
        </mxCell>
        <mxCell id="wr6of2yjVsRFrPMzdIXp-5" value="&lt;span style=&quot;font-size: 18px;&quot;&gt;&lt;b&gt;内置实现类2&lt;/b&gt;&lt;/span&gt;" style="rounded=1;whiteSpace=wrap;html=1;fillColor=#dae8fc;strokeColor=#6c8ebf;" vertex="1" parent="1">
          <mxGeometry x="310" y="560" width="120" height="60" as="geometry" />
        </mxCell>
        <mxCell id="wr6of2yjVsRFrPMzdIXp-6" value="&lt;span style=&quot;font-size: 18px;&quot;&gt;&lt;b&gt;用户定义&lt;br&gt;实现类3&lt;/b&gt;&lt;/span&gt;" style="rounded=1;whiteSpace=wrap;html=1;fillColor=#e1d5e7;strokeColor=#9673a6;" vertex="1" parent="1">
          <mxGeometry x="490" y="555" width="120" height="60" as="geometry" />
        </mxCell>
        <mxCell id="wr6of2yjVsRFrPMzdIXp-7" value="&lt;span style=&quot;font-size: 18px;&quot;&gt;&lt;b&gt;用户定义&lt;br&gt;实现类4&lt;/b&gt;&lt;/span&gt;" style="rounded=1;whiteSpace=wrap;html=1;fillColor=#e1d5e7;strokeColor=#9673a6;" vertex="1" parent="1">
          <mxGeometry x="650" y="555" width="120" height="60" as="geometry" />
        </mxCell>
        <mxCell id="wr6of2yjVsRFrPMzdIXp-12" value="&lt;font style=&quot;font-size: 19px;&quot;&gt;&lt;b&gt;用户定义的实现类和Dubbo内置的实现类一样&lt;br&gt;都可以被选择调用&lt;br&gt;&lt;/b&gt;&lt;/font&gt;" style="text;html=1;strokeColor=none;fillColor=none;align=center;verticalAlign=middle;whiteSpace=wrap;rounded=0;" vertex="1" parent="1">
          <mxGeometry x="510" y="420" width="220" height="30" as="geometry" />
        </mxCell>
      </root>
    </mxGraphModel>
  </diagram>
</mxfile>
